<!--?xml version="1.0" encoding="utf-8"?-->
<!-- Generator: Adobe Illustrator 18.0.0, SVG Export Plug-In . SVG Version: 6.00 Build 0)  -->

<svg version="1.1" id="_x31_0" xmlns="http://www.w3.org/2000/svg" xmlns:xlink="http://www.w3.org/1999/xlink" x="0px" y="0px" viewBox="0 0 512 512" style="width: 32px; height: 32px; opacity: 1;" xml:space="preserve">
<style type="text/css">
	.st0{fill:#374149;}
</style>
<g>
	<path class="st0" d="M247.73,331.774c4.153,5.476,12.386,5.476,16.539,0l107.988-142.547c5.18-6.832,0.305-16.641-8.27-16.641
		h-46.066c-5.73,0-10.374-4.644-10.374-10.374V15.438c0-5.73-4.645-10.375-10.375-10.375h-82.344
		c-5.73,0-10.375,4.645-10.375,10.375v146.774c0,5.73-4.644,10.374-10.374,10.374h-46.066c-8.574,0-13.446,9.809-8.27,16.641
		L247.73,331.774z" style="fill: rgb(75, 75, 75);"></path>
	<polygon class="st0" points="444.774,318.91 444.774,439.714 67.222,439.714 67.222,318.91 0,318.91 0,506.938 512,506.938 
		512,318.91 	" style="fill: rgb(75, 75, 75);"></polygon>
</g>
</svg>
